<svg aria-hidden="true" style="width:0;height:0;position:absolute;overflow:hidden" xmlns="http://www.w3.org/2000/svg"><defs><symbol id="icon-alert-circle" viewBox="0 0 32 32"><path fill="none" stroke="#fcf7e6" style="stroke:var(--color1,#fcf7e6)" stroke-linejoin="round" stroke-linecap="round" stroke-width="2.667" d="M16 29.333c7.364 0 13.333-5.97 13.333-13.333S23.363 2.667 16 2.667C8.636 2.667 2.667 8.637 2.667 16S8.637 29.333 16 29.333zM16 10.667V16M16 21.333h.013"/></symbol><symbol id="icon-chevron-down" viewBox="0 0 32 32"><path fill="none" stroke="#fcf7e6" style="stroke:var(--color1,#fcf7e6)" stroke-linejoin="round" stroke-linecap="round" stroke-width="2.667" d="m8 12 8 8 8-8"/></symbol><symbol id="icon-logo" viewBox="0 0 82 32"><path d="M7.347 14.694C3.296 14.694 0 11.398 0 7.347S3.296 0 7.347 0s7.347 3.296 7.347 7.347-3.296 7.347-7.347 7.347zm0-13.633c-3.466 0-6.286 2.82-6.286 6.286s2.82 6.286 6.286 6.286c3.466 0 6.286-2.82 6.286-6.286s-2.82-6.286-6.286-6.286z"/><path d="m5.691 4.898 1.465 4.783h.054l1.465-4.783h1.773l-2.211 6.531H6.128L3.917 4.898H5.69zM21.824 0l2.655 8.697h.099L27.233 0h3.212l-4.006 11.874h-3.821L18.612 0h3.212zM34.813 12.042c-.935 0-1.739-.191-2.412-.574a3.954 3.954 0 0 1-1.548-1.612c-.359-.692-.539-1.494-.539-2.406 0-.916.18-1.718.539-2.406a3.911 3.911 0 0 1 1.548-1.612c.672-.387 1.476-.58 2.412-.58s1.737.193 2.406.58c.673.383 1.189.92 1.548 1.612.363.688.545 1.49.545 2.406 0 .912-.182 1.714-.545 2.406a3.91 3.91 0 0 1-1.548 1.612c-.668.383-1.471.574-2.406.574zm.017-2.139c.34 0 .628-.104.864-.313s.415-.499.539-.87c.128-.371.191-.8.191-1.287 0-.495-.064-.928-.191-1.299-.124-.371-.303-.661-.539-.87s-.524-.313-.864-.313c-.352 0-.649.104-.893.313-.24.209-.423.499-.551.87-.124.371-.185.804-.185 1.299 0 .487.062.916.185 1.287.128.371.311.661.551.87.243.209.541.313.893.313zM44.921 12.042c-.935 0-1.739-.191-2.412-.574a3.96 3.96 0 0 1-1.548-1.612c-.359-.692-.539-1.494-.539-2.406 0-.916.18-1.718.539-2.406a3.911 3.911 0 0 1 1.548-1.612c.673-.387 1.477-.58 2.412-.58s1.737.193 2.406.58c.673.383 1.189.92 1.548 1.612.363.688.545 1.49.545 2.406 0 .912-.182 1.714-.545 2.406a3.91 3.91 0 0 1-1.548 1.612c-.668.383-1.471.574-2.406.574zm.017-2.139c.34 0 .628-.104.864-.313s.415-.499.539-.87c.128-.371.191-.8.191-1.287 0-.495-.064-.928-.191-1.299-.124-.371-.303-.661-.539-.87s-.524-.313-.864-.313c-.352 0-.649.104-.893.313-.24.209-.423.499-.551.87-.124.371-.185.804-.185 1.299 0 .487.062.916.185 1.287.128.371.311.661.551.87.243.209.541.313.893.313zM55.261 11.874h-4.389V0h4.383c1.21 0 2.251.238 3.125.713a4.876 4.876 0 0 1 2.029 2.041c.475.885.713 1.944.713 3.177 0 1.237-.238 2.3-.713 3.189a4.876 4.876 0 0 1-2.023 2.047c-.877.472-1.919.707-3.125.707zm-1.519-2.447h1.409c.665 0 1.227-.112 1.687-.336.464-.228.813-.597 1.049-1.107.24-.514.359-1.198.359-2.052s-.12-1.534-.359-2.041c-.239-.51-.593-.877-1.061-1.102-.464-.228-1.036-.342-1.716-.342h-1.368v6.98zM66.955 12.042c-.935 0-1.739-.191-2.412-.574a3.954 3.954 0 0 1-1.548-1.612c-.359-.692-.539-1.494-.539-2.406 0-.916.18-1.718.539-2.406a3.911 3.911 0 0 1 1.548-1.612c.673-.387 1.477-.58 2.412-.58s1.737.193 2.406.58c.673.383 1.189.92 1.548 1.612.363.688.545 1.49.545 2.406 0 .912-.182 1.714-.545 2.406a3.91 3.91 0 0 1-1.548 1.612c-.669.383-1.471.574-2.406.574zm.018-2.139c.34 0 .628-.104.864-.313s.416-.499.539-.87c.128-.371.191-.8.191-1.287 0-.495-.064-.928-.191-1.299-.123-.371-.303-.661-.539-.87s-.524-.313-.864-.313c-.352 0-.649.104-.893.313-.24.209-.423.499-.551.87a4.132 4.132 0 0 0-.185 1.299c0 .487.062.916.185 1.287.128.371.311.661.551.87.244.209.541.313.893.313zM77.064 12.042c-.935 0-1.739-.191-2.412-.574a3.954 3.954 0 0 1-1.548-1.612c-.359-.692-.539-1.494-.539-2.406 0-.916.18-1.718.539-2.406a3.911 3.911 0 0 1 1.548-1.612c.673-.387 1.477-.58 2.412-.58s1.737.193 2.406.58c.673.383 1.189.92 1.548 1.612.363.688.545 1.49.545 2.406 0 .912-.182 1.714-.545 2.406a3.91 3.91 0 0 1-1.548 1.612c-.669.383-1.471.574-2.406.574zm.017-2.139c.34 0 .628-.104.864-.313s.416-.499.539-.87c.128-.371.191-.8.191-1.287 0-.495-.064-.928-.191-1.299-.123-.371-.303-.661-.539-.87s-.524-.313-.864-.313c-.352 0-.649.104-.893.313-.24.209-.423.499-.551.87a4.132 4.132 0 0 0-.185 1.299c0 .487.062.916.185 1.287.128.371.311.661.551.87.244.209.541.313.893.313zM18.74 22.249v-2.331h10.036v2.331h-3.6v9.543h-2.829v-9.543h-3.606zM33.049 31.96c-.932 0-1.736-.184-2.412-.551a3.812 3.812 0 0 1-1.554-1.583c-.359-.688-.539-1.506-.539-2.452 0-.92.182-1.724.545-2.412a3.933 3.933 0 0 1 1.536-1.612c.661-.387 1.44-.58 2.336-.58.634 0 1.214.099 1.739.296s.98.489 1.363.875c.382.387.68.864.893 1.432.213.564.319 1.212.319 1.942v.707h-7.74v-1.647h5.102c-.004-.302-.075-.57-.215-.806s-.33-.419-.574-.551a1.661 1.661 0 0 0-.829-.203 1.68 1.68 0 0 0-.852.215 1.615 1.615 0 0 0-.829 1.391v1.676c0 .363.072.682.215.957.143.271.346.481.609.632s.576.226.939.226c.251 0 .479-.035.684-.104s.381-.172.527-.307c.147-.135.257-.302.33-.499l2.603.075a3.22 3.22 0 0 1-.713 1.525c-.363.429-.841.763-1.432 1.003-.591.236-1.275.354-2.052.354zM46.498 25.606l-2.603.07a.976.976 0 0 0-.22-.493 1.18 1.18 0 0 0-.47-.342 1.6 1.6 0 0 0-.661-.128c-.328 0-.609.066-.841.197-.228.131-.34.309-.336.533a.568.568 0 0 0 .209.452c.147.128.408.23.783.307l1.716.325c.889.17 1.55.452 1.983.846.437.394.657.916.661 1.565-.004.611-.185 1.142-.545 1.594-.356.452-.842.804-1.461 1.055-.618.247-1.326.371-2.122.371-1.272 0-2.275-.261-3.009-.783-.73-.526-1.148-1.229-1.252-2.11l2.8-.07c.062.325.222.572.481.742s.59.255.992.255c.363 0 .659-.068.887-.203s.344-.315.348-.539a.572.572 0 0 0-.267-.481c-.174-.124-.446-.22-.818-.29l-1.554-.296c-.893-.162-1.558-.462-1.994-.899-.437-.441-.653-1.001-.649-1.681-.004-.595.155-1.104.475-1.525.321-.425.777-.75 1.368-.974s1.289-.336 2.093-.336c1.206 0 2.157.253 2.853.759.696.502 1.08 1.194 1.154 2.076zM53.141 22.887v2.087h-5.618v-2.087h5.618zM48.7 20.753h2.835v8.239c0 .174.027.315.081.423.058.104.141.18.249.226.108.043.238.064.388.064.108 0 .222-.01.342-.029a5.19 5.19 0 0 0 .278-.058l.429 2.047c-.135.039-.327.087-.574.145a4.716 4.716 0 0 1-.875.11c-.665.031-1.235-.046-1.71-.232a2.217 2.217 0 0 1-1.084-.881c-.248-.398-.367-.899-.359-1.502v-8.552z"/></symbol><symbol id="icon-Logomark" viewBox="0 0 32 32"><path d="M16 32C7.177 32 0 24.823 0 16S7.177 0 16 0s16 7.177 16 16-7.177 16-16 16zm0-29.69C8.452 2.31 2.31 8.451 2.31 16S8.451 29.69 16 29.69c7.548 0 13.69-6.141 13.69-13.69S23.549 2.31 16 2.31z"/><path d="m12.394 10.667 3.191 10.417h.118l3.191-10.417h3.86l-4.815 14.222h-4.592L8.532 10.667h3.86z"/></symbol><symbol id="icon-shopping-cart" viewBox="0 0 32 32"><path d="M2.667 4c0-.736.597-1.333 1.333-1.333h2.667c.652 0 1.208.471 1.315 1.114l.481 2.886H28a1.333 1.333 0 0 1 1.265 1.755l-4 12a1.332 1.332 0 0 1-1.265.912H9.333a1.333 1.333 0 0 1-1.315-1.114L5.537 5.334H4a1.333 1.333 0 0 1-1.333-1.333zm6.24 5.333 1.556 9.333h12.576l3.111-9.333H8.907zM8 26.667a2.667 2.667 0 1 1 5.334 0 2.667 2.667 0 0 1-5.334 0zM20 26.667a2.667 2.667 0 1 1 5.334 0 2.667 2.667 0 0 1-5.334 0z"/></symbol></defs></svg>